<?xml version="1.0" encoding="UTF-8"?>
<svg width="32" height="32" viewBox="0 0 32 32" fill="none" xmlns="http://www.w3.org/2000/svg">
    <!-- Background circle -->
    <circle cx="16" cy="16" r="16" fill="#3B82F6"/>
    
    <!-- Phone icon -->
    <path d="M9.5 6.5C9.5 6.22386 9.72386 6 10 6H13C13.2761 6 13.5 6.22386 13.5 6.5V9.5C13.5 9.77614 13.2761 10 13 10H11V11C11 11.5523 11.4477 12 12 12H20C20.5523 12 21 11.5523 21 11V10H19C18.7239 10 18.5 9.77614 18.5 9.5V6.5C18.5 6.22386 18.7239 6 19 6H22C22.2761 6 22.5 6.22386 22.5 6.5V9.5C22.5 9.77614 22.2761 10 22 10V11C22 12.1046 21.1046 13 20 13H12C10.8954 13 10 12.1046 10 11V10C9.72386 10 9.5 9.77614 9.5 9.5V6.5Z" fill="white"/>
    
    <!-- Contact book pages -->
    <rect x="8" y="16" width="16" height="12" rx="1" fill="white"/>
    <rect x="9" y="17" width="14" height="1" fill="#3B82F6"/>
    <rect x="9" y="19" width="10" height="1" fill="#9CA3AF"/>
    <rect x="9" y="21" width="12" height="1" fill="#9CA3AF"/>
    <rect x="9" y="23" width="8" height="1" fill="#9CA3AF"/>
    <rect x="9" y="25" width="11" height="1" fill="#9CA3AF"/>
</svg>
